<svg width="41" height="41" viewBox="0 0 41 41" fill="none" xmlns="http://www.w3.org/2000/svg">
<path d="M33.4022 5.11927C32.9909 5.1492 32.5872 5.24569 32.2068 5.40499H32.2017C31.8365 5.54977 30.1004 6.28009 27.461 7.38709L18.0029 11.3705C11.2161 14.2277 4.54461 17.0413 4.54461 17.0413L4.62405 17.0106C4.62405 17.0106 4.16408 17.1617 3.68361 17.491C3.38678 17.6799 3.13136 17.927 2.9328 18.2175C2.69705 18.5634 2.50742 19.0926 2.57789 19.6397C2.6932 20.5647 3.29283 21.1195 3.72333 21.4257C4.15895 21.7358 4.57408 21.8806 4.57408 21.8806H4.58433L10.8407 23.9882C11.1213 24.889 12.7472 30.2343 13.138 31.4656C13.3686 32.2011 13.5928 32.661 13.8734 33.0121C14.0092 33.1915 14.1681 33.3414 14.359 33.4618C14.4582 33.5195 14.5641 33.5651 14.6742 33.5976L14.6101 33.5822C14.6293 33.5874 14.6447 33.6027 14.6588 33.6079C14.71 33.622 14.7446 33.6271 14.81 33.6373C15.8004 33.9371 16.596 33.3221 16.596 33.3221L16.6409 33.2863L20.3347 29.923L26.5257 34.6726L26.6667 34.7328C27.9569 35.2991 29.2638 34.9839 29.9544 34.4279C30.6501 33.868 30.9204 33.1517 30.9204 33.1517L30.9653 33.0364L35.7495 8.5274C35.8853 7.92265 35.9199 7.35634 35.77 6.80668C35.6153 6.25039 35.2584 5.77195 34.7693 5.46521C34.3586 5.21551 33.8823 5.09499 33.4022 5.11927V5.11927ZM33.2728 7.74584C33.2677 7.82656 33.283 7.81759 33.2472 7.97262V7.98671L28.5078 32.2408C28.4873 32.2754 28.4527 32.351 28.3579 32.4266C28.258 32.506 28.1785 32.556 27.7621 32.3907L20.19 26.5853L15.6159 30.7545L16.5768 24.6173L28.9486 13.0861C29.4585 12.612 29.2881 12.5121 29.2881 12.5121C29.324 11.9304 28.5181 12.3417 28.5181 12.3417L12.9176 22.0061L12.9125 21.9805L5.43508 19.4629V19.4577L5.41586 19.4539C5.42897 19.4495 5.4418 19.4444 5.4543 19.4385L5.4953 19.418L5.53502 19.4039C5.53502 19.4039 12.2116 16.5903 18.9984 13.7331C22.3963 12.302 25.8198 10.8606 28.4527 9.74843C31.0857 8.64271 33.0319 7.83168 33.1421 7.78812C33.2472 7.74712 33.1972 7.74712 33.2728 7.74712V7.74584Z" fill="black"/>
</svg>
