<svg width="22" height="22" viewBox="0 0 22 22" fill="none" xmlns="http://www.w3.org/2000/svg">
<path d="M4.082 0C3.00068 0.00421365 1.96486 0.435633 1.20025 1.20025C0.435633 1.96486 0.00421365 3.00068 0 4.082V17.918C0.00421365 18.9993 0.435633 20.0351 1.20025 20.7998C1.96486 21.5644 3.00068 21.9958 4.082 22H17.918C18.9993 21.9958 20.0351 21.5644 20.7998 20.7998C21.5644 20.0351 21.9958 18.9993 22 17.918V4.082C21.9958 3.00068 21.5644 1.96486 20.7998 1.20025C20.0351 0.435633 18.9993 0.00421365 17.918 0H4.082ZM4.082 2H17.918C19.078 2 20 2.922 20 4.082V17.918C20 19.078 19.078 20 17.918 20H4.082C3.80811 20.0017 3.53659 19.9491 3.28321 19.845C3.02984 19.741 2.79963 19.5877 2.60596 19.394C2.41228 19.2004 2.25899 18.9702 2.15497 18.7168C2.05095 18.4634 1.99827 18.1919 2 17.918V4.082C2 2.922 2.922 2 4.082 2ZM10.719 7.23C9.984 7.223 9.359 7.23 9.008 7.402C8.773 7.516 8.594 7.773 8.703 7.785C8.84 7.805 9.148 7.871 9.313 8.094C9.523 8.379 9.516 9.024 9.516 9.024C9.516 9.024 9.633 10.797 9.23 11.02C8.953 11.172 8.574 10.863 7.754 9.453C7.336 8.727 7.02 7.926 7.02 7.926C7.02 7.926 6.96 7.777 6.852 7.699C6.719 7.602 6.535 7.57 6.535 7.57L4.578 7.582C4.578 7.582 4.285 7.594 4.18 7.719C4.082 7.836 4.172 8.066 4.172 8.066C4.172 8.066 5.703 11.648 7.437 13.453C9.027 15.11 10.832 15 10.832 15H11.652C11.652 15 11.898 14.973 12.023 14.84C12.141 14.715 12.137 14.48 12.137 14.48C12.137 14.48 12.121 13.383 12.629 13.219C13.133 13.062 13.773 14.281 14.457 14.75C14.977 15.105 15.371 15.027 15.371 15.027L17.2 15C17.2 15 18.153 14.941 17.7 14.187C17.665 14.129 17.438 13.633 16.345 12.617C15.196 11.555 15.349 11.727 16.731 9.887C17.571 8.766 17.907 8.082 17.801 7.785C17.701 7.508 17.083 7.582 17.083 7.582L15.024 7.594C15.024 7.594 14.872 7.574 14.759 7.641C14.6813 7.6987 14.6194 7.77505 14.579 7.863C14.579 7.863 14.251 8.73 13.817 9.469C12.903 11.023 12.532 11.109 12.384 11.012C12.036 10.785 12.122 10.105 12.122 9.625C12.122 8.113 12.352 7.488 11.677 7.325C11.454 7.27 11.29 7.235 10.72 7.23H10.719Z" fill="black"/>
</svg>
