<svg width="42" height="42" viewBox="0 0 42 42" fill="none" xmlns="http://www.w3.org/2000/svg">
<rect width="42" height="42" fill="white"/>
<path d="M35.2354 1H6.87564C3.63578 1 1 3.62848 1 6.85938V35.1406C1 38.3715 3.63578 41 6.87564 41H35.2354C38.4753 41 41.111 38.3715 41.111 35.1406V6.85938C41.111 3.62848 38.4753 1 35.2354 1ZM38.7608 35.1406C38.7608 37.0791 37.1793 38.6562 35.2354 38.6562H6.87564C4.93178 38.6562 3.35026 37.0791 3.35026 35.1406V6.85938C3.35026 4.9209 4.93178 3.34375 6.87564 3.34375H35.2354C37.1793 3.34375 38.7608 4.9209 38.7608 6.85938V35.1406Z" fill="#070707" stroke="#070707" stroke-width="0.5"/>
<path d="M31.4727 15.9481C31.6333 15.4011 31.4727 15 30.7128 15H28.1957C27.5552 15 27.2625 15.347 27.1019 15.7281C27.1019 15.7281 25.8221 18.9264 24.0086 21.0002C23.4232 21.6036 23.1557 21.7942 22.8367 21.7942C22.6771 21.7942 22.4453 21.6036 22.4453 21.0566V15.9481C22.4453 15.2917 22.2605 15 21.7267 15H17.7714C17.372 15 17.131 15.3035 17.131 15.5928C17.131 16.2139 18.0377 16.3574 18.1307 18.1077V21.9047C18.1307 22.7363 17.9849 22.8881 17.6635 22.8881C16.8107 22.8881 14.7355 19.678 13.5039 16.0034C13.2641 15.2894 13.0219 15.0012 12.3791 15.0012H9.86314C9.14347 15.0012 9 15.3482 9 15.7293C9 16.4139 9.85281 19.8015 12.9725 24.282C15.0523 27.3415 17.9803 29 20.6478 29C22.2467 29 22.4441 28.6318 22.4441 27.9966V25.6841C22.4441 24.9477 22.5968 24.7995 23.1029 24.7995C23.4748 24.7995 24.1153 24.9924 25.6086 26.4663C27.3142 28.2142 27.5966 28.9988 28.555 28.9988H31.0709C31.7894 28.9988 32.1487 28.6306 31.9421 27.9037C31.716 27.1803 30.9011 26.1275 29.8198 24.8819C29.2322 24.1714 28.3541 23.4068 28.0867 23.0245C27.7136 22.5317 27.8215 22.3141 28.0867 21.8765C28.0878 21.8777 31.1536 17.4525 31.4727 15.9481V15.9481Z" fill="black"/>
</svg>
